# xmcd CD database file
#
# Track frame offsets:
#	150
#	18322
#	35413
#	49985
#	64540
#	79331
#	93656
#	110144
#	129165
#	143797
#	158049
#	177377
#	189324
#	203425
#	220216
#
# Disc length: 3125 seconds
#
# Revision: 0
# Processed by: cddbd v1.5.2PL0 Copyright (c) Steve Scherf et al.
# Submitted via: CDex 1.70beta2
#
DISCID=cd0c330f
DTITLE=Bill Hearne - From Santa Fe to Las Cruces
DYEAR=2004
DGENRE=Country
TTITLE0=The Gift
TTITLE1=Magnolia Wind
TTITLE2=Let It Ride
TTITLE3=One More Time
TTITLE4=Second Cup of Coffee
TTITLE5=Long Way Back Home
TTITLE6=Why You Been Gone So Long
TTITLE7=River
TTITLE8=Home From The Forest
TTITLE9=Lucky That way
TTITLE10=When Rita Leaves
TTITLE11=Love Reunited
TTITLE12=Farther Down the Line
TTITLE13=Lone Star Blues
TTITLE14=I Want to Be With You Always
EXTD=YEAR: 2004
EXTT0=
EXTT1=
EXTT2=
EXTT3=
EXTT4=
EXTT5=
EXTT6=
EXTT7=
EXTT8=
EXTT9=
EXTT10=
EXTT11=
EXTT12=
EXTT13=
EXTT14=
PLAYORDER=
